<?xml version="1.0" encoding="UTF-8"?>
<svg width="23px" height="27px" viewBox="0 0 23 27" version="1.1" xmlns="http://www.w3.org/2000/svg" xmlns:xlink="http://www.w3.org/1999/xlink">
    <!-- Generator: sketchtool 57.1 (101010) - https://sketch.com -->
    <title>9D262877-D461-450F-9738-6108F943D32D</title>
    <desc>Created with sketchtool.</desc>
    <g id="Consulta-e-mapa" stroke="none" stroke-width="1" fill="none" fill-rule="evenodd">
        <g id="desktop-00-consulta-tabela-pronta-fonte-op1" transform="translate(-80.000000, -12.000000)" fill="#0065A6">
            <g id="header">
                <g id="title" transform="translate(80.000000, 12.000000)">
                    <g id="icon-atlas">
                        <path d="M16.4901388,-1.13686838e-13 C16.9394155,-1.13686838e-13 17.3593284,0.134719977 17.7029967,0.372275783 C18.2825825,0.756145803 18.8294019,1.1933241 19.3334991,1.68204634 C22.0045841,4.27159366 23.1895906,8.32403107 22.476041,12.0020503 C22.3786243,12.5041311 22.2359648,13.0030613 22.055498,13.4974546 C20.2864949,18.4561328 13.9617133,24.5079457 11.3400298,26.7925142 C8.71822022,24.5079457 2.39343865,18.4561328 0.624435547,13.4974546 C0.443968749,13.0030613 0.301435265,12.5041311 0.204018481,12.0020503 C-0.509657132,8.32403107 0.675349365,4.27159366 3.34643441,1.68204634 C3.85053161,1.1933241 4.39735105,0.756145803 4.97706284,0.372275783 C5.32060508,0.134719977 5.74051805,-1.13686838e-13 6.1899207,-1.13686838e-13 C7.36648357,-1.13686838e-13 8.32023548,0.953751906 8.32023548,2.13031477 C8.32023548,2.86213789 7.95451296,3.51229725 7.39244458,3.89591522 C5.6686842,5.12830686 4.54454744,7.14557783 4.54454744,9.4262396 C4.54454744,13.1792433 7.5870261,16.2217219 11.3400298,16.2217219 C15.0930334,16.2217219 18.1353861,13.1792433 18.1353861,9.4262396 C18.1353861,7.14557783 17.0113753,5.12830686 15.287615,3.89591522 C14.7255466,3.51229725 14.359698,2.86213789 14.359698,2.13031477 C14.359698,0.953751906 15.313576,-1.13686838e-13 16.4901388,-1.13686838e-13 Z M11.3399668,5.22626555 C13.65957,5.22626555 15.5398526,7.10667413 15.5398526,9.42627741 C15.5398526,11.7457547 13.65957,13.6261632 11.3399668,13.6261632 C9.02036348,13.6261632 7.14008092,11.7457547 7.14008092,9.42627741 C7.14008092,7.10667413 9.02036348,5.22626555 11.3399668,5.22626555 Z"></path>
                    </g>
                </g>
            </g>
        </g>
    </g>
</svg>